# xmcd
# 
# Track frame offsets:
#     150
#     10530
#     23932
#     39947
#     56478
#     68687
#     79348
# 
# Disc length: 1315
# 
# Revision: 0
# Processed by: cddbd v1.5.2PL0 Copyright (c) Steve Scherf et al.
# Submitted via: BonkEnc v1.0.8
# 
DISCID=49052107
DTITLE=Vilöhr/Parchment/Hebestadt/Heimberger - Aschenputtel - Das Musical
DYEAR=2009
DGENRE=Musical
TTITLE0=Träume von Zeiten
TTITLE1=Hol mir dies, hol mir das
TTITLE2=Ich bin für dich
TTITLE3=Sie können das gut tragen
TTITLE4=So schön
TTITLE5=Ja halt mal
TTITLE6=Wir sind so
EXTD=
EXTT0=
EXTT1=
EXTT2=
EXTT3=
EXTT4=
EXTT5=
EXTT6=
PLAYORDER=
